Coordinates
version=1
nRows=9
nColumns=36
inDegrees=yes

Units are S.I. units (second, meters, Newtons, ...)
If the header above contains a line with 'inDegrees', this indicates whether rotational values are in degrees (yes) or radians (no).

endheader
time	pelvis_tilt	pelvis_list	pelvis_rotation	pelvis_tx	pelvis_ty	pelvis_tz	hip_flexion_r	hip_adduction_r	hip_rotation_r	knee_angle_r	knee_angle_r_beta	ankle_angle_r	subtalar_angle_r	mtp_angle_r	hip_flexion_l	hip_adduction_l	hip_rotation_l	knee_angle_l	knee_angle_l_beta	ankle_angle_l	subtalar_angle_l	mtp_angle_l	lumbar_extension	lumbar_bending	lumbar_rotation	arm_flex_r	arm_add_r	arm_rot_r	elbow_flex_r	pro_sup_r	arm_flex_l	arm_add_l	arm_rot_l	elbow_flex_l	pro_sup_l
      4.48333330	    -13.18737883	     -3.91288540	      9.49659529	      0.76336644	      0.89699441	      0.20591643	     45.82514742	    -10.88979557	     -4.01951617	     54.93898785	      0.95886623	     30.38448637	     -1.70873937	     -7.49999987	     46.29284855	    -13.52492456	     -5.23316622	     55.81747696	      0.97419875	     40.40240137	      7.37483210	     -7.49999987	    -21.77819987	      1.16497101	      1.91312822	     14.33148700	    -21.39220310	      6.11092975	     87.47146512	     83.80720422	     15.55160134	    -20.36382840	     13.39677479	     94.36613013	     90.33621926
      4.50000000	    -11.12397487	     -3.33880708	      9.49781997	      0.76462593	      0.91202357	      0.20640053	     41.30385963	    -10.85415518	     -4.43218112	     51.77287117	      0.90360707	     29.65040955	     -1.31340576	     -7.49999987	     41.60424049	    -13.26466049	     -6.18832785	     52.57329034	      0.91757702	     39.59977354	      8.10715766	     -7.49999987	    -21.49889530	      0.98301449	      2.02554037	     12.45844880	    -20.76242636	      6.44505866	     80.93677911	     83.62805959	     13.33349857	    -19.48236552	     12.91353143	     89.56482070	     90.98566262
      4.51666670	     -9.37586199	     -2.77915368	      9.35702320	      0.77002405	      0.92734334	      0.20410286	     37.21036697	    -10.92075833	     -5.03977271	     48.52333447	      0.84689195	     28.59921850	     -0.83418474	     -7.49999987	     37.20503872	    -12.96343258	     -7.23230249	     49.16862549	      0.85815440	     38.65805051	      8.78791719	     -7.49999987	    -20.98225487	      0.83608698	      2.09257649	     10.84434659	    -20.01741056	      6.53932250	     75.21719448	     83.28363754	     11.51823423	    -18.35738014	     12.17582496	     84.91037779	     91.42537010
      4.53333330	     -7.21297680	     -2.17976194	      9.19427617	      0.77902787	      0.94386621	      0.20320331	     32.30569349	    -10.98205768	     -5.95383540	     44.59268802	      0.77828923	     27.37574147	     -0.29005643	     -7.49999987	     31.94704782	    -12.59100208	     -8.38058079	     45.01971764	      0.78574230	     37.41081509	      9.46278778	     -7.49999987	    -20.87320023	      0.83878720	      2.37547508	      9.20503061	    -19.47900240	      6.79556384	     69.51532643	     82.47623850	      9.87589994	    -17.28957861	     11.24374982	     79.71434994	     91.52761528
      4.55000000	     -5.84221230	     -1.76468941	      8.96557099	      0.78459247	      0.95872261	      0.20546217	     28.33187293	    -10.92115253	     -6.81111813	     40.72208051	      0.71073438	     26.00050883	      0.20083699	     -7.49999987	     27.57185144	    -12.23348066	     -9.46411636	     40.77894865	      0.71172692	     35.92968767	     10.21730055	     -7.49999987	    -19.87216300	      0.75014323	      2.51645746	      7.52325991	    -18.88896257	      6.75761039	     65.03582599	     81.98008322	      8.09008955	    -16.63795529	     10.60417482	     74.76190531	     91.35145862
      4.56666670	     -4.04338052	     -1.43452305	      8.87018789	      0.79147989	      0.97445024	      0.20838776	     23.52820829	    -10.60637744	     -7.94722927	     36.26917498	      0.63301652	     24.47653042	      0.87399626	     -7.49999987	     22.66056407	    -11.89469606	    -10.43521698	     36.11575218	      0.63033879	     34.06896290	     10.95821672	     -7.49999987	    -19.35611251	      0.76917414	      2.61122484	      5.93599920	    -18.12855995	      7.05024653	     59.87616890	     81.35308285	      6.64360722	    -16.16163432	     10.58323088	     69.62219744	     91.06789286
      4.58333330	     -2.79515083	     -1.14609257	      8.62260906	      0.79645590	      0.98796770	      0.20558052	     19.58494698	    -10.33159703	     -8.92982791	     32.02382473	      0.55892118	     22.95303020	      1.79856894	     -7.49999987	     18.39728756	    -11.52431694	    -11.62005760	     31.59037583	      0.55135607	     32.20734665	     11.83816508	     -7.49999987	    -18.33855320	      0.68857996	      3.15007157	      4.20637282	    -18.16081919	      7.57793260	     55.49361533	     80.72592845	      4.95294357	    -15.55173499	     10.79695977	     66.04715478	     90.74964553
      4.60000000	     -2.01215074	     -0.95471037	      8.61666043	      0.79787071	      1.00056201	      0.20469550	     16.50036844	    -10.10133258	     -9.84243629	     28.40973563	      0.49584343	     21.33121575	      2.51975356	     -7.49999987	     15.26560560	    -11.10239954	    -12.47869632	     27.77301463	      0.48473055	     30.37146208	     12.49866429	     -7.49999987	    -17.39730462	      0.68896830	      3.65093065	      3.07868433	    -18.11469689	      7.81780810	     51.12756558	     80.02205266	      3.63366130	    -15.01953233	     10.70584233	     62.67506157	     90.34367515
      4.61666670	     -1.52074030	     -0.82084818	      8.81962031	      0.80239426	      1.00301046	      0.20116807	     14.15038919	     -9.99340619	    -10.71971849	     25.46185205	      0.44439315	     20.02458154	      3.22771658	     -7.49999987	     12.95997786	    -10.57677938	    -12.94486860	     24.64522766	      0.43014037	     29.18706636	     12.84390639	     -7.49999987	    -16.03614155	      0.81702751	      3.57864041	      2.26660718	    -18.58261134	     10.66682163	     47.40459942	     73.19068847	      2.12146552	    -14.93407146	     11.18651716	     60.57634572	     85.59728347
